<svg xmlns="http://www.w3.org/2000/svg" viewBox="0 0 8 13" height="13" width="8">
  <path fill="#696969" fill-rule="evenodd" d="M 1.5,3 C 2.325,3 3,2.325 3,1.5 3,0.675 2.325,0 1.5,0 0.675,0 0,0.675 0,1.5 0,2.325 0.675,3 1.5,3 Z m 0,2 C 0.675,5 0,5.675 0,6.5 0,7.325 0.675,8 1.5,8 2.325,8 3,7.325 3,6.5 3,5.675 2.325,5 1.5,5 Z m 0,5 C 0.675,10 0,10.675 0,11.5 0,12.325 0.675,13 1.5,13 2.325,13 3,12.325 3,11.5 3,10.675 2.325,10 1.5,10 Z" />
  <path fill="#696969" fill-rule="evenodd" d="m 6.5101868,3 c 0.825,0 1.5,-0.675 1.5,-1.5 0,-0.825 -0.675,-1.5 -1.5,-1.5 -0.825,0 -1.5,0.675 -1.5,1.5 0,0.825 0.675,1.5 1.5,1.5 z m 0,2 c -0.825,0 -1.5,0.675 -1.5,1.5 0,0.825 0.675,1.5 1.5,1.5 0.825,0 1.5,-0.675 1.5,-1.5 0,-0.825 -0.675,-1.5 -1.5,-1.5 z m 0,5 c -0.825,0 -1.5,0.675 -1.5,1.5 0,0.825 0.675,1.5 1.5,1.5 0.825,0 1.5,-0.675 1.5,-1.5 0,-0.825 -0.675,-1.5 -1.5,-1.5 z" />
</svg>
