<?xml version="1.0" encoding="UTF-8"?>
<svg width="79px" height="79px" viewBox="0 0 79 79" version="1.1" xmlns="http://www.w3.org/2000/svg" xmlns:xlink="http://www.w3.org/1999/xlink">
    <g id="logo_visam" stroke="none" stroke-width="1" fill="none" fill-rule="evenodd">
        <path d="M36.89,9 L36.89,14.13 L31.94,14.76 C29.51,15.12 29.06,16.11 30.23,19.26 L30.23,19.26 L42.83,59.94 L43.28,59.94 L56.33,19.8 C57.41,16.74 56.87,15.57 54.35,15.03 L54.35,15.03 L49.76,14.04 L50.03,9 L72.98,9 L72.98,14.13 L68.57,14.85 C66.41,15.3 65.87,16.2 64.52,19.71 L64.52,19.71 L47.24,72 L38.442,71.9996772 L31.5647946,50.8295451 L29.4623948,50.82908 L36.34,71.9996772 L33.56,72 L15.74,19.62 C14.57,16.47 14.3,15.75 11.69,15.12 L11.69,15.12 L8.09,14.4 L8.09,9 L15.87,8.99967717 L21.6698568,26.8477252 L23.7728723,26.8474024 L17.972,8.99967717 L36.89,9 Z M27.6934005,45.3861319 L28.812122,48.8286657 L30.9145217,48.8291309 L29.7965883,45.3872127 L27.6934005,45.3861319 Z M27.958942,39.7332695 L25.8565423,39.7328044 L27.0433,43.3871213 L29.1463154,43.3867984 L27.958942,39.7332695 Z M24.088336,34.2904719 L25.2062694,37.7323901 L27.3092848,37.7320673 L26.1907358,34.2909371 L24.088336,34.2904719 Z M24.4225295,28.8486046 L22.3201297,28.8481395 L23.4380631,32.2900577 L25.5410786,32.2897348 L24.4225295,28.8486046 Z" id="Combined-Shape" fill="#3167A6" fill-rule="nonzero"></path>
    </g>
</svg>
