<?xml version="1.0" encoding="UTF-8"?>
<svg width="22px" height="22px" viewBox="0 0 22 22" version="1.1" xmlns="http://www.w3.org/2000/svg" xmlns:xlink="http://www.w3.org/1999/xlink">
    <g id="icone/timeline/boite" stroke="none" stroke-width="1" fill="none" fill-rule="evenodd">
        <g id="icone/boite" transform="translate(3.000000, 3.000000)">
            <rect fill="#FFFFFF" x="0" y="0" width="17" height="17"></rect>
            <path d="M15.1111111,-1 C16.7066004,-1 18,0.293399612 18,1.88888889 L18,15.1111111 C18,16.7022847 16.7022847,18 15.1111111,18 L1.87944444,18 C0.281533131,18 -1,16.7050711 -0.999999745,15.1103968 L-0.990555556,1.88888889 C-0.990555556,0.287688199 0.27930997,-1 1.87944444,-1 L15.1111111,-1 Z M14.1111111,10.3333333 L14.1111111,2.88888889 L2.87944444,2.88888889 L2.87944444,10.3333333 L6.66666667,10.3333333 L6.66666667,11.3333333 C6.66666667,12.3450538 7.49017266,13.1666667 8.5,13.1666667 C9.50982734,13.1666667 10.3333333,12.3450538 10.3333333,11.3333333 L10.3333333,10.3333333 L14.1111111,10.3333333 Z" id="Shape" stroke="#FFFFFF" stroke-width="2" fill="#3167A6" fill-rule="evenodd"></path>
        </g>
    </g>
</svg>
