<?xml version="1.0" encoding="UTF-8"?>
<svg width="41px" height="20px" viewBox="0 0 41 20" version="1.1" xmlns="http://www.w3.org/2000/svg" xmlns:xlink="http://www.w3.org/1999/xlink">
    <g id="icone/oeil/bleu" stroke="none" stroke-width="1" fill="none" fill-rule="evenodd">
        <path d="M22.5174154,8.5331014 C23.4604447,9.10198523 24.5,8.56836926 24.5,9.75 C24.5,11.5449254 23.0449254,13 21.25,13 C19.4550746,13 18,11.5449254 18,9.75 C18,7.95507456 19.4550746,6.5 21.25,6.5 C21.8632947,6.5 21.574386,7.96421757 22.5174154,8.5331014 Z M32,10 C30.27,14.39 26,17.5 21,17.5 C16,17.5 11.73,14.39 10,10 C11.73,5.61 16,2.5 21,2.5 C26,2.5 30.27,5.61 32,10 Z M12.18,10 C13.83,13.36 17.24,15.5 21,15.5 C24.76,15.5 28.17,13.36 29.82,10 C28.17,6.64 24.76,4.5 21,4.5 C17.24,4.5 13.83,6.64 12.18,10 Z" id="Shape" fill="#3167A6" fill-rule="nonzero"></path>
    </g>
</svg>
