<?xml version="1.0" encoding="UTF-8"?>
<svg width="41px" height="20px" viewBox="0 0 41 20" version="1.1" xmlns="http://www.w3.org/2000/svg" xmlns:xlink="http://www.w3.org/1999/xlink">
    <g id="icon/eye" stroke="none" stroke-width="1" fill="none" fill-rule="evenodd">
        <g id="icon/remove_red_eye" transform="translate(9.000000, 1.500000)" fill="#3167A6">
            <g id="remove_red_eye">
                <path d="M11.5,0.53125 C6.27272727,0.53125 1.80863636,3.835625 0,8.5 C1.80863636,13.164375 6.27272727,16.46875 11.5,16.46875 C16.7272727,16.46875 21.1913636,13.164375 23,8.5 C21.1913636,3.835625 16.7272727,0.53125 11.5,0.53125 Z M11.5,13.8125 C8.61454545,13.8125 6.27272727,11.4325 6.27272727,8.5 C6.27272727,5.5675 8.61454545,3.1875 11.5,3.1875 C14.3854545,3.1875 16.7272727,5.5675 16.7272727,8.5 C16.7272727,11.4325 14.3854545,13.8125 11.5,13.8125 Z M11.5,5.3125 C9.76454545,5.3125 8.36363636,6.73625 8.36363636,8.5 C8.36363636,10.26375 9.76454545,11.6875 11.5,11.6875 C13.2354545,11.6875 14.6363636,10.26375 14.6363636,8.5 C14.6363636,6.73625 13.2354545,5.3125 11.5,5.3125 Z" id="Shape"></path>
            </g>
        </g>
    </g>
</svg>
