<?xml version="1.0" encoding="UTF-8"?>
<svg width="79px" height="78px" viewBox="0 0 79 78" version="1.1" xmlns="http://www.w3.org/2000/svg" xmlns:xlink="http://www.w3.org/1999/xlink">
    <g id="Logo" stroke="none" stroke-width="1" fill="none" fill-rule="evenodd">
        <g id="Vectorisation" transform="translate(-574.000000, -376.000000)">
            <g id="Bleu" transform="translate(471.600000, 270.000000)">
                <g id="zam_favicon" transform="translate(103.000000, 106.000000)">
                    <rect id="Rectangle" fill="#FFFFFF" x="0" y="0" width="78" height="78"></rect>
                    <path d="M59.0853553,11 L47.6187106,28 L49.4,28 L49.4,28.9357131 L60,13.2205668 L60,16.52 L30,61.4 L44.16,61.4 C49.76,61.4 52.08,59.48 55.84,48.68 L61.04,48.68 L59.52,67 L23.7253143,67 L35.1919591,50 L33.4,50 L33.4,49.0801053 L21.3128784,67 L16,67 L16,61.56 L46.24,16.52 L32.64,16.52 C26,16.52 24.64,20.84 22.24,28.52 L16.72,28.92 L17.68,11 L59.0853553,11 Z M48.6821294,30 L46.2696935,30 L44.246168,33 L46.4,33 L46.4,33.383396 L48.6821294,30 Z M36.5409761,48 L38.5645017,45 L36.4,45 L36.4,44.6324224 L34.1285402,48 L36.5409761,48 Z M39.9135187,43 L41.9370442,40 L39.5246083,40 L37.5010828,43 L39.9135187,43 Z M43.2860613,38 L45.3095868,35 L42.8971509,35 L40.8736254,38 L43.2860613,38 L43.2860613,38 Z" id="Icone_Zam_bleu" fill="#3167A6"></path>
                </g>
            </g>
        </g>
    </g>
</svg>
