<?xml version="1.0" encoding="UTF-8"?>
<svg width="46px" height="56px" viewBox="0 0 46 56" version="1.1" xmlns="http://www.w3.org/2000/svg" xmlns:xlink="http://www.w3.org/1999/xlink">
    <g id="Logo" stroke="none" stroke-width="1" fill="none" fill-rule="evenodd">
        <g id="Vectorisation" transform="translate(-595.000000, -270.000000)" fill="#3167A6">
            <g id="Bleu" transform="translate(471.600000, 270.000000)">
                <path d="M166.485355,-3.55271368e-15 L155.018711,17 L156.8,17 L156.8,17.9357131 L167.4,2.22056682 L167.4,5.52 L137.4,50.4 L151.56,50.4 C157.16,50.4 159.48,48.48 163.24,37.68 L168.44,37.68 L166.92,56 L131.125314,56 L142.591959,39 L140.8,39 L140.8,38.0801053 L128.712878,56 L123.4,56 L123.4,50.56 L153.64,5.52 L140.04,5.52 C133.4,5.52 132.04,9.84 129.64,17.52 L124.12,17.92 L125.08,-3.55271368e-15 L166.485355,-3.55271368e-15 Z M156.082129,19 L153.669694,19 L151.646168,22 L153.8,22 L153.8,22.383396 L156.082129,19 Z M143.940976,37 L145.964502,34 L143.8,34 L143.8,33.6324224 L141.52854,37 L143.940976,37 Z M147.313519,32 L149.337044,29 L146.924608,29 L144.901083,32 L147.313519,32 Z M150.686061,27 L152.709587,24 L150.297151,24 L148.273625,27 L150.686061,27 L150.686061,27 Z" id="Icone_Zam_bleu"></path>
            </g>
        </g>
    </g>
</svg>
