<?xml version="1.0" encoding="UTF-8"?>
<svg width="46px" height="77px" viewBox="0 0 46 77" version="1.1" xmlns="http://www.w3.org/2000/svg" xmlns:xlink="http://www.w3.org/1999/xlink">
    <g id="Logo" stroke="none" stroke-width="1" fill="none" fill-rule="evenodd">
        <g id="Artboard" transform="translate(-471.000000, -143.000000)" fill="#ffffff" fill-rule="nonzero">
            <g id="Logo-1.0" transform="translate(471.600000, 143.000000)">
                <path d="M43.0853553,-7.10542736e-15 L31.6187106,17 L33.4,17 L33.4,17.9357131 L44,2.22056682 L44,5.52 L14,50.4 L28.16,50.4 C33.76,50.4 36.08,48.48 39.84,37.68 L45.04,37.68 L43.52,56 L7.72531429,56 L19.1919591,39 L17.4,39 L17.4,38.0801053 L5.3128784,56 L-1.42108547e-14,56 L-1.42108547e-14,50.56 L30.24,5.52 L16.64,5.52 C10,5.52 8.64,9.84 6.24,17.52 L0.72,17.92 L1.68,-7.10542736e-15 L43.0853553,-7.10542736e-15 Z M32.6821294,19 L30.2696935,19 L28.246168,22 L30.4,22 L30.4,22.383396 L32.6821294,19 Z M20.5409761,37 L22.5645017,34 L20.4,34 L20.4,33.6324224 L18.1285402,37 L20.5409761,37 Z M23.9135187,32 L25.9370442,29 L23.5246083,29 L21.5010828,32 L23.9135187,32 Z M27.2860613,27 L29.3095868,24 L26.8971509,24 L24.8736254,27 L27.2860613,27 L27.2860613,27 Z" id="Shape"></path>
                <path d="M1.137,76 L1.137,74.9 L7.561,66.1 L5.207,66.1 C3.491,66.1 3.161,66.518 2.567,68.52 L1.203,68.63 L1.467,64.802 L10.377,64.802 L10.377,65.88 L3.953,74.658 L6.373,74.658 C8.375,74.658 8.551,74.262 9.387,71.93 L10.685,71.93 L10.377,76 L1.137,76 Z M15.459,76.308 C13.941,76.308 12.313,75.494 12.313,73.294 C12.313,71.336 13.677,70.28 15.855,69.972 C16.735,69.84 17.703,69.774 18.583,69.73 L18.583,68.19 C18.583,66.342 17.791,65.726 16.405,65.726 C15.503,65.726 14.755,66.056 14.447,66.364 C14.667,66.738 14.997,67.288 14.997,67.596 C14.997,68.102 14.579,68.63 13.677,68.63 C12.731,68.63 12.379,68.08 12.379,67.42 C12.379,65.814 14.447,64.494 16.735,64.494 C19.089,64.494 20.915,65.33 20.915,68.564 L20.915,73.712 C20.915,74.614 21.487,74.922 22.873,74.526 L23.115,75.428 C22.499,76 21.619,76.308 20.959,76.308 C19.617,76.308 19.001,75.516 18.847,74.416 C18.077,75.648 17.021,76.308 15.459,76.308 Z M16.427,74.658 C17.307,74.658 18.583,74.152 18.583,72.48 L18.583,70.94 C17.857,70.94 17.131,71.028 16.603,71.116 C15.195,71.336 14.733,72.172 14.733,73.03 C14.733,74.196 15.503,74.658 16.427,74.658 Z M24.303,76 L24.303,74.9 L25.359,74.702 C25.931,74.592 25.931,74.262 25.931,73.646 L25.931,67.552 C25.931,66.562 25.865,66.298 25.183,66.188 L24.105,66.034 L24.259,64.89 L27.625,64.648 L27.889,64.802 L28.043,66.76 L28.109,66.76 C28.681,65.726 29.913,64.494 31.761,64.494 C33.653,64.494 34.599,65.462 34.995,66.782 C35.545,65.66 36.843,64.494 38.669,64.494 C41.375,64.494 42.123,66.342 42.123,68.256 L42.123,73.822 C42.123,74.416 42.189,74.614 42.805,74.724 L43.839,74.9 L43.839,76 L38.361,76 L38.361,74.922 L39.153,74.724 C39.681,74.614 39.791,74.438 39.791,73.8 L39.791,69.004 C39.791,67.442 39.593,66.254 37.855,66.254 C36.623,66.254 35.215,67.068 35.215,69.158 L35.215,73.734 C35.215,74.372 35.259,74.57 35.743,74.68 L36.689,74.922 L36.689,76 L31.431,76 L31.431,74.922 L32.223,74.746 C32.773,74.636 32.861,74.438 32.861,73.822 L32.861,69.004 C32.861,67.442 32.685,66.254 30.947,66.254 C29.627,66.254 28.285,67.112 28.285,69.268 L28.285,73.734 C28.285,74.372 28.351,74.57 28.835,74.68 L29.759,74.922 L29.759,76 L24.303,76 Z" id="zam"></path>
            </g>
        </g>
    </g>
</svg>
