<?xml version="1.0" encoding="UTF-8"?>
<svg width="24px" height="24px" viewBox="0 0 24 24" version="1.1" xmlns="http://www.w3.org/2000/svg" xmlns:xlink="http://www.w3.org/1999/xlink">
    <g id="icone/loupe" stroke="none" stroke-width="1" fill="none" fill-rule="evenodd">
        <path d="M14.9808264,13.4808264 L14.1908264,13.4808264 L13.9108264,13.2108264 C14.9247766,12.0348944 15.482018,10.5335368 15.4808264,8.98082641 C15.4808264,5.39097553 12.5706773,2.48082641 8.98082641,2.48082641 C5.39097553,2.48082641 2.48082641,5.39097553 2.48082641,8.98082641 C2.48082641,12.5706773 5.39097553,15.4808264 8.98082641,15.4808264 C10.5908264,15.4808264 12.0708264,14.8908264 13.2108264,13.9108264 L13.4808264,14.1908264 L13.4808264,14.9808264 L18.4808264,19.9708264 L19.9708264,18.4808264 L14.9808264,13.4808264 L14.9808264,13.4808264 Z M8.98082641,13.4808264 C6.49082641,13.4808264 4.48082641,11.4708264 4.48082641,8.98082641 C4.48082641,6.49082641 6.49082641,4.48082641 8.98082641,4.48082641 C11.4708264,4.48082641 13.4808264,6.49082641 13.4808264,8.98082641 C13.4808264,11.4708264 11.4708264,13.4808264 8.98082641,13.4808264 Z" id="Shape" fill="#979797"></path>
    </g>
</svg>
