<?xml version="1.0" standalone="no"?>
<!DOCTYPE svg PUBLIC "-//W3C//DTD SVG 20010904//EN"
 "http://www.w3.org/TR/2001/REC-SVG-20010904/DTD/svg10.dtd">
<svg version="1.0" xmlns="http://www.w3.org/2000/svg"
 width="700.000000pt" height="700.000000pt" viewBox="0 0 700.000000 700.000000"
 preserveAspectRatio="xMidYMid meet">
<metadata>
Created by potrace 1.11, written by Peter Selinger 2001-2013
</metadata>
<g transform="translate(0.000000,700.000000) scale(0.100000,-0.100000)"
fill="#000000" stroke="none">
<path d="M727 6200 c-9 -4 -12 -61 -11 -225 1 -121 2 -227 3 -236 1 -16 14
-20 101 -35 337 -58 428 -105 497 -253 45 -96 76 -183 303 -851 33 -96 118
-348 190 -560 73 -212 140 -410 150 -440 10 -30 77 -226 148 -435 71 -209 155
-456 187 -550 31 -93 59 -177 62 -185 3 -8 7 -19 9 -25 1 -5 28 -84 59 -175
76 -219 460 -1345 522 -1533 l26 -77 123 0 c94 0 122 3 119 13 -17 56 -119
371 -175 542 -225 692 -314 964 -350 1080 -23 72 -50 154 -61 183 -10 29 -19
54 -19 56 0 1 42 2 94 2 l93 0 68 -210 c38 -116 93 -285 122 -376 80 -245 148
-454 277 -855 65 -198 123 -376 129 -395 l13 -35 389 -3 390 -2 26 77 c35 103
501 1517 641 1943 60 184 114 344 118 355 5 11 104 308 219 660 526 1599 571
1731 639 1852 32 58 89 116 139 141 35 18 159 48 236 58 36 4 101 14 132 20
11 3 36 7 55 9 84 13 76 -13 76 240 0 197 -2 225 -15 226 -68 4 -2005 3 -2011
-1 -7 -5 -11 -61 -26 -351 l-4 -95 87 -18 c329 -65 431 -94 483 -138 52 -43
69 -135 44 -236 -7 -31 -34 -120 -59 -197 -25 -77 -93 -286 -151 -465 -58
-179 -116 -356 -129 -395 -13 -38 -71 -218 -130 -400 -142 -440 -188 -582
-245 -755 -26 -80 -94 -287 -150 -460 -56 -173 -140 -430 -185 -570 -46 -140
-96 -294 -111 -342 -24 -74 -32 -88 -49 -88 -18 0 -26 15 -54 107 -34 113 -80
262 -161 523 -27 85 -88 281 -135 435 -48 154 -109 352 -137 440 -46 148 -103
335 -148 480 -10 33 -30 98 -45 145 -15 47 -35 112 -45 145 -10 33 -89 287
-175 565 -86 278 -165 532 -175 565 -60 197 -71 231 -77 245 -38 90 -48 220
-20 264 35 52 124 84 282 101 61 6 252 31 313 41 l32 5 0 227 0 227 -828 -2
c-455 0 -833 -2 -839 -2 -9 -1 -10 -7 -3 -23 5 -13 55 -165 110 -338 56 -173
110 -340 120 -370 69 -205 270 -829 270 -838 0 -6 -33 -10 -90 -10 l-89 0 -60
181 c-33 100 -103 317 -157 482 -53 165 -118 365 -144 445 -26 80 -71 218
-100 308 -39 117 -57 162 -69 163 -64 4 -654 3 -664 -1z m1484 -1900 c27 -80
48 -148 48 -152 1 -5 -41 -8 -91 -8 l-93 1 -47 146 c-26 81 -45 149 -43 153 2
3 43 5 91 5 l88 0 47 -145z m108 -345 c12 -13 98 -290 90 -295 -6 -4 -83 -5
-156 -1 -18 1 -27 20 -67 145 -25 79 -46 147 -46 152 0 10 169 9 179 -1z m206
-622 c26 -82 48 -155 49 -162 1 -12 -16 -15 -82 -15 -46 -1 -87 1 -92 4 -6 4
-53 140 -100 293 l-9 27 93 0 93 0 48 -147z m166 -508 c27 -82 49 -150 49
-150 0 -1 -167 2 -177 3 -11 2 -103 263 -103 292 0 8 29 10 91 8 l91 -3 49
-150z"/>
</g>
</svg>
