<?xml version="1.0" standalone="no"?>
<!DOCTYPE svg PUBLIC "-//W3C//DTD SVG 20010904//EN"
 "http://www.w3.org/TR/2001/REC-SVG-20010904/DTD/svg10.dtd">
<svg version="1.0" xmlns="http://www.w3.org/2000/svg"
 width="896.000000pt" height="896.000000pt" viewBox="0 0 896.000000 896.000000"
 preserveAspectRatio="xMidYMid meet">
<metadata>
Created by potrace 1.11, written by Peter Selinger 2001-2013
</metadata>
<g transform="translate(0.000000,896.000000) scale(0.100000,-0.100000)"
fill="#000000" stroke="none">
<path d="M1069 8958 c-1 -4 -5 -78 -14 -243 -4 -77 -8 -169 -10 -205 -2 -36
-6 -114 -9 -175 -4 -60 -8 -146 -11 -190 -2 -44 -7 -129 -10 -190 -3 -60 -8
-141 -10 -180 -4 -72 -12 -209 -20 -372 -2 -51 -7 -136 -10 -189 -4 -53 -8
-138 -11 -188 -2 -50 -6 -131 -9 -181 -3 -49 -7 -137 -10 -195 -8 -157 -13
-263 -20 -385 -4 -60 -7 -123 -8 -140 -2 -34 -11 -33 158 -20 55 4 123 9 150
10 73 5 202 14 265 20 30 3 96 8 145 11 158 9 174 14 181 61 6 34 199 627 226
692 6 14 12 31 14 36 7 29 101 253 141 335 65 134 164 296 211 345 6 8 12 16
12 19 0 18 137 152 218 213 48 36 165 105 182 108 3 1 23 9 45 19 32 14 121
46 145 51 3 0 23 5 45 10 22 4 47 10 55 12 8 2 33 5 55 8 22 3 56 8 75 11 19
4 567 7 1216 8 l1182 2 -91 -135 c-50 -75 -94 -138 -97 -141 -4 -3 -9 -10 -11
-15 -2 -6 -89 -138 -194 -293 -104 -155 -197 -293 -205 -306 -55 -87 -216
-322 -222 -324 -5 -2 -8 -7 -8 -12 0 -8 -119 -190 -146 -223 -8 -10 -20 -29
-26 -43 -6 -13 -15 -24 -19 -24 -4 0 -11 -9 -14 -20 -3 -11 -12 -26 -18 -32
-7 -7 -102 -148 -212 -313 -110 -165 -202 -302 -205 -305 -3 -3 -63 -93 -135
-200 -71 -107 -133 -196 -137 -198 -4 -2 -8 -8 -8 -13 0 -5 -32 -55 -70 -110
-39 -55 -70 -102 -70 -105 0 -4 -12 -23 -27 -43 -16 -20 -32 -44 -38 -53 -19
-32 -109 -163 -115 -168 -4 -3 -9 -10 -11 -15 -4 -11 -181 -277 -189 -285 -3
-3 -61 -90 -130 -195 -69 -104 -133 -199 -142 -209 -10 -11 -18 -25 -18 -32 0
-7 -3 -14 -7 -16 -5 -1 -62 -84 -128 -183 -66 -99 -123 -181 -127 -183 -5 -2
-8 -8 -8 -14 0 -6 -12 -27 -27 -47 -16 -20 -32 -44 -38 -53 -30 -50 -130 -193
-137 -196 -4 -2 -8 -8 -8 -13 0 -11 -81 -133 -92 -137 -5 -2 -8 -10 -8 -18 0
-8 -4 -14 -10 -14 -5 0 -10 -4 -10 -8 0 -7 -179 -282 -207 -317 -4 -6 -75
-111 -158 -235 -82 -124 -153 -227 -158 -228 -4 -2 -7 -8 -7 -12 0 -5 -15 -30
-32 -56 -18 -25 -40 -57 -48 -70 -39 -61 -375 -560 -381 -564 -3 -3 -12 -16
-19 -29 -7 -14 -17 -30 -22 -35 -5 -6 -53 -78 -108 -161 -54 -82 -103 -154
-107 -160 -5 -5 -104 -153 -221 -327 l-212 -318 0 -435 0 -435 430 0 c364 0
430 2 430 14 0 8 3 16 8 18 4 1 43 57 87 123 43 66 92 137 108 158 16 20 26
37 22 37 -3 0 3 10 15 22 11 12 20 25 20 29 0 4 6 14 13 21 7 7 32 45 57 83
24 39 47 72 50 75 4 3 42 59 86 125 44 66 124 184 177 263 53 79 97 147 97
152 0 4 4 10 8 12 5 1 73 100 152 218 80 118 148 217 152 218 4 2 8 7 8 12 0
7 82 133 107 165 5 6 58 84 118 175 60 91 112 167 115 170 4 3 24 33 45 68 21
34 42 62 46 62 5 0 9 4 9 9 0 7 258 399 287 436 30 39 113 166 113 175 0 5 6
10 13 10 10 0 13 -17 13 -62 -1 -49 2 -63 14 -64 8 -1 20 -3 25 -4 23 -4 146
0 155 5 6 3 10 2 10 -4 0 -7 9 -7 23 -3 12 5 30 7 39 5 15 -4 12 -13 -20 -61
-20 -31 -39 -59 -42 -62 -14 -14 -70 -102 -70 -109 0 -5 -3 -11 -8 -13 -4 -2
-25 -30 -47 -63 -21 -33 -41 -62 -44 -65 -6 -5 -77 -110 -96 -142 -17 -28
-330 -493 -335 -498 -3 -3 -41 -59 -85 -125 -44 -66 -82 -122 -85 -125 -3 -3
-88 -129 -189 -280 -102 -151 -230 -342 -286 -425 -175 -259 -491 -729 -499
-743 -6 -10 565 -12 2855 -10 2772 3 2862 4 2865 21 1 11 6 65 9 120 7 101 8
115 19 232 3 33 8 94 11 135 3 41 7 95 10 120 4 40 10 108 20 245 2 22 6 69 9
105 3 36 8 94 11 130 3 36 8 88 10 115 2 28 7 84 10 125 3 41 8 93 10 115 3
22 7 76 11 120 6 89 12 160 19 250 3 33 7 83 9 110 3 28 7 82 11 120 6 71 12
142 20 250 3 33 7 85 10 115 17 196 24 280 30 376 3 44 7 90 10 102 4 22 2 22
-108 22 -151 1 -565 1 -653 0 l-72 0 -16 -47 c-9 -27 -19 -55 -21 -63 -11 -39
-96 -267 -105 -282 -5 -10 -10 -23 -10 -30 0 -7 -6 -24 -13 -38 -15 -29 -51
-122 -52 -132 0 -3 -3 -10 -7 -14 -5 -4 -8 -16 -8 -26 0 -10 -3 -18 -8 -18 -4
0 -12 -17 -19 -38 -26 -85 -173 -395 -260 -550 -108 -191 -205 -325 -327 -447
-90 -90 -247 -205 -279 -205 -9 0 -17 -4 -17 -9 0 -7 -136 -63 -160 -66 -3 -1
-14 -4 -25 -8 -11 -3 -31 -8 -45 -11 -23 -5 -39 -8 -100 -21 -32 -7 -72 -12
-168 -21 -97 -9 -2482 -11 -2482 -2 0 12 35 68 43 68 4 0 7 4 7 10 0 10 96
155 118 178 6 7 12 17 12 22 0 5 6 15 13 22 7 7 28 38 47 68 19 30 37 57 40
60 3 3 72 106 154 230 82 124 152 227 156 230 3 3 10 12 13 20 8 17 29 49 74
114 18 26 33 51 33 56 0 4 3 10 8 12 4 2 29 37 57 78 27 41 53 80 57 85 5 6
170 253 368 550 197 297 368 551 379 565 12 14 21 30 21 37 0 6 3 13 8 15 7 3
383 564 391 583 2 6 7 12 11 15 6 5 895 1333 915 1367 13 23 67 105 78 118 4
6 71 105 147 220 77 116 143 215 147 220 5 6 107 159 228 340 120 182 231 346
247 366 15 20 25 39 21 43 -3 3 -1 6 5 6 6 0 13 8 16 18 4 10 14 27 24 38 9
10 33 44 52 74 19 30 37 57 40 60 3 3 30 43 60 90 30 47 57 87 60 90 3 3 30
43 60 90 30 47 57 87 60 90 10 10 50 69 50 74 0 6 102 154 122 176 7 8 12 17
11 20 -1 3 16 29 37 58 22 29 40 57 40 62 0 4 9 19 20 32 11 12 81 115 155
228 75 113 141 212 148 220 24 30 40 69 34 84 -4 9 -3 16 1 16 4 0 7 23 7 50
0 28 -3 50 -7 50 -3 0 -3 12 1 27 4 16 4 45 1 66 -4 20 -3 40 1 43 5 3 5 14
-1 24 -6 11 -6 21 -1 24 5 4 6 18 2 34 -4 15 -4 42 0 60 4 17 3 32 -1 32 -5 0
-5 13 0 30 9 33 -5 52 -15 20 -3 -11 -11 -20 -16 -20 -5 0 -9 -7 -9 -15 0 -8
-4 -15 -10 -15 -5 0 -10 -6 -10 -14 0 -8 -3 -16 -8 -18 -6 -2 -227 -324 -257
-375 -5 -9 -18 -26 -27 -37 -10 -11 -18 -24 -18 -29 0 -4 -6 -15 -12 -22 -28
-31 -38 -44 -38 -51 0 -3 -8 -16 -17 -29 -21 -27 -25 -32 -103 -150 -33 -49
-63 -95 -67 -100 -5 -6 -57 -84 -118 -175 -60 -91 -112 -167 -115 -170 -3 -3
-9 -13 -15 -22 -11 -19 -305 -457 -318 -473 -31 -40 -167 -248 -167 -256 0 -5
-3 -9 -7 -9 -5 0 -21 -21 -38 -48 -16 -26 -34 -52 -40 -59 -5 -6 -66 -97 -135
-201 -69 -105 -127 -191 -130 -191 -3 -1 -5 31 -5 69 1 58 -2 70 -15 69 -8 -1
-17 0 -20 1 -15 5 -120 4 -120 -2 0 -4 -6 -5 -13 -2 -25 9 -72 11 -94 2 -13
-4 -23 -6 -23 -3 0 9 102 160 112 166 5 3 8 8 7 10 -3 4 31 60 41 69 3 3 62
88 130 190 68 102 183 272 254 378 72 106 138 203 146 216 8 13 97 145 196
292 100 148 210 312 245 364 35 52 67 97 72 98 4 2 7 8 7 13 0 5 23 40 50 79
28 39 50 75 50 80 0 6 3 10 8 10 4 0 12 9 17 20 11 20 106 161 115 170 3 3 21
30 40 60 19 30 37 57 40 60 3 3 36 52 75 110 38 58 73 110 77 115 10 13 132
196 142 213 6 9 -658 12 -3303 12 -1821 0 -3311 -1 -3312 -2z m4866 -3039 c5
10 85 0 85 -9 0 -5 -7 -15 -15 -24 -8 -8 -15 -17 -15 -21 0 -6 -99 -155 -110
-165 -3 -3 -21 -30 -40 -60 -19 -30 -39 -60 -45 -66 -5 -6 -35 -50 -65 -97
-30 -48 -58 -87 -61 -87 -3 0 -6 12 -5 26 1 26 0 27 -64 25 -36 -1 -72 -2 -80
-2 -175 0 -204 2 -190 11 8 5 11 10 6 10 -5 0 -1 10 10 23 11 12 40 54 64 92
25 39 47 72 50 75 3 3 28 39 55 80 28 41 53 77 58 78 4 2 7 8 7 13 0 5 14 28
31 52 l30 42 102 5 c56 3 121 2 145 -1 23 -3 44 -3 47 0z m-755 -799 c9 5 22
5 30 0 7 -4 24 -4 36 0 14 6 26 5 29 0 4 -6 13 -7 24 -1 9 5 23 6 31 1 7 -4
24 -4 36 0 14 6 26 5 29 -1 4 -6 13 -6 23 0 9 5 26 5 38 1 12 -5 25 -6 29 -2
4 4 -66 -101 -154 -233 l-162 -240 -52 -2 c-29 -1 -54 -2 -57 -3 -3 -2 -9 -1
-15 0 -27 5 -155 4 -155 -2 0 -4 -13 -3 -29 2 -15 4 -34 4 -41 0 -7 -5 -19 -6
-26 -3 -9 3 13 44 68 126 45 67 85 124 90 125 4 2 8 10 8 18 0 8 5 14 10 14 6
0 10 4 10 10 0 8 64 106 88 136 5 5 14 20 21 31 11 22 49 35 65 21 5 -4 16 -3
26 2z m-545 -800 c11 4 27 4 35 0 8 -4 24 -4 35 0 11 4 31 4 45 1 14 -4 36 -5
50 -4 28 3 119 5 137 4 11 -1 -249 -399 -269 -412 -5 -3 -9 -9 -9 -13 3 -16
-33 -57 -45 -52 -8 3 -14 1 -14 -4 0 -6 -9 -6 -25 0 -15 6 -26 6 -30 0 -4 -6
-13 -7 -24 -1 -10 6 -23 6 -31 1 -8 -5 -21 -5 -30 0 -9 5 -22 5 -30 0 -7 -4
-24 -4 -36 0 -14 6 -26 5 -29 -1 -4 -6 -13 -6 -23 0 -10 6 -23 6 -34 0 -10 -6
-19 -5 -23 1 -3 5 -12 7 -20 3 -23 -8 -18 19 8 48 13 13 26 30 28 35 6 15 202
306 217 322 6 7 12 17 12 21 0 5 11 20 25 35 19 20 29 25 42 18 10 -5 27 -6
38 -2z m-570 -778 c0 -15 16 -17 135 -19 74 -1 137 -3 140 -4 3 0 18 0 34 1
37 2 35 -4 -47 -122 -35 -51 -66 -101 -70 -110 -3 -10 -11 -18 -17 -18 -5 0
-10 -4 -10 -10 0 -5 -22 -41 -50 -80 -27 -39 -50 -73 -50 -78 -1 -4 -11 -19
-23 -34 -21 -26 -25 -27 -115 -25 -50 1 -92 0 -92 -3 0 -3 -26 -4 -57 -3 -32
1 -75 2 -95 2 -41 1 -47 11 -23 35 8 8 15 17 15 20 0 6 111 171 130 193 5 7
10 16 10 21 0 4 8 17 18 28 10 10 29 37 42 59 13 22 30 46 37 53 7 7 13 17 13
21 0 4 8 16 18 27 9 10 23 31 31 46 15 29 26 29 26 0z"/>
</g>
</svg>
